<?xml version="1.0" encoding="utf-8"?>
<!-- Generator: Adobe Illustrator 16.0.0, SVG Export Plug-In . SVG Version: 6.00 Build 0)  -->
<!DOCTYPE svg PUBLIC "-//W3C//DTD SVG 1.1//EN" "http://www.w3.org/Graphics/SVG/1.1/DTD/svg11.dtd">
<svg version="1.1" id="Layer_1" xmlns="http://www.w3.org/2000/svg" xmlns:xlink="http://www.w3.org/1999/xlink" x="0px" y="0px"
	 width="345.1px" height="70.8px" viewBox="0 0 345.1 70.8" enable-background="new 0 0 345.1 70.8" xml:space="preserve">
<path fill="#1E1E1E" d="M93.481,43.654h-12l-2.399,7.199h-5.2l11.3-30.613h4.8l11.101,30.613h-5.2L93.481,43.654z M82.981,39.353
	h9.101l-4.5-13.113h-0.101L82.981,39.353z"/>
<path fill="#1E1E1E" d="M109.981,38.054v12.699h-5.1V20.14h11.3c3.4,0,6.101,0.8,7.9,2.3c1.899,1.5,2.8,3.7,2.8,6.602
	c0,1.603-0.4,2.905-1.2,4.107c-0.8,1.102-2,2.103-3.6,2.704c1.7,0.5,3,1.401,3.7,2.702c0.8,1.199,1.1,2.799,1.1,4.6v2.5
	c0,0.9,0.1,1.8,0.3,2.6c0.2,0.9,0.601,1.5,1.101,2v0.5h-5.301c-0.6-0.5-0.899-1.199-1.1-2.199s-0.2-2-0.2-2.9v-2.5
	c0-1.6-0.399-2.801-1.3-3.7s-2.1-1.399-3.7-1.399H109.981L109.981,38.054z M109.981,33.95h5.9c2,0,3.5-0.4,4.5-1.203
	c0.9-0.801,1.4-2.003,1.4-3.605c0-1.502-0.5-2.802-1.4-3.602c-0.9-0.9-2.3-1.3-4.2-1.3h-6.2V33.95L109.981,33.95z"/>
<path fill="#1E1E1E" d="M156.181,38.253c0,1.9-0.3,3.7-1,5.301c-0.6,1.6-1.6,3-2.7,4.199l5.101,4.9l-3.4,3.1l-5.6-5.4
	c-0.8,0.301-1.601,0.5-2.4,0.701c-0.8,0.1-1.7,0.199-2.6,0.199c-3.7,0-6.7-1.199-9-3.699s-3.4-5.601-3.4-9.301v-5.506
	c0-3.706,1.101-6.807,3.4-9.307s5.3-3.7,8.899-3.7c3.7,0,6.801,1.2,9.2,3.7c2.4,2.5,3.5,5.602,3.5,9.307V38.253z M151.082,32.648
	c0-2.604-0.7-4.607-2.101-6.308c-1.399-1.6-3.199-2.5-5.5-2.5c-2.199,0-4,0.8-5.3,2.5c-1.3,1.6-2,3.704-2,6.308v5.605
	c0,2.6,0.7,4.7,2,6.301c1.3,1.6,3.101,2.5,5.3,2.5c2.301,0,4.2-0.801,5.5-2.5c1.4-1.601,2-3.801,2-6.4v-5.506H151.082z"/>
<path fill="#1E1E1E" d="M184.484,20.14v20.514c0,3.4-1.1,6-3.3,7.8s-5.1,2.7-8.702,2.7c-3.501,0-6.301-0.9-8.501-2.7
	c-2.199-1.8-3.3-4.399-3.3-7.8V20.14h5.101v20.514c0,2.1,0.6,3.8,1.8,4.8c1.2,1.101,2.8,1.601,4.9,1.601
	c2.102,0,3.802-0.5,5.001-1.601c1.2-1.101,1.9-2.7,1.9-4.8V20.14H184.484z"/>
<path fill="#1E1E1E" d="M194.484,50.753h-5.1V20.14h5.1V50.753z"/>
<path fill="#1E1E1E" d="M222.984,46.654c-0.8,1.199-2.1,2.199-4,3.199c-1.899,0.9-4.199,1.4-7.199,1.4c-3.7,0-6.7-1.199-9.101-3.5
	c-2.399-2.3-3.6-5.4-3.6-9.1v-6.407c0-3.706,1.1-6.707,3.399-9.107c2.301-2.3,5.2-3.5,8.7-3.5c3.601,0,6.4,0.9,8.4,2.7
	s3,4.1,3.1,6.901v0.1h-4.8c-0.1-1.701-0.7-3.001-1.8-4.101c-1.101-1.1-2.7-1.5-4.7-1.5c-2.1,0-3.8,0.8-5.1,2.4
	c-1.301,1.6-1.9,3.603-1.9,6.007v6.407c0,2.5,0.7,4.5,2.1,6.1c1.4,1.6,3.2,2.4,5.5,2.4c1.601,0,2.9-0.201,3.9-0.601s1.7-0.8,2.2-1.3
	v-6.2h-6.101v-3.801h11.2v11.501H222.984z"/>
<path fill="#1E1E1E" d="M232.484,38.054v12.699h-5.1V20.14h11.3c3.4,0,6.101,0.8,7.9,2.3c1.899,1.5,2.8,3.7,2.8,6.602
	c0,1.603-0.4,2.905-1.2,4.107c-0.8,1.102-2,2.103-3.6,2.704c1.7,0.5,3,1.401,3.7,2.702c0.8,1.199,1.1,2.799,1.1,4.6v2.5
	c0,0.9,0.1,1.8,0.3,2.6c0.2,0.9,0.601,1.5,1.101,2v0.5h-5.301c-0.6-0.5-0.899-1.199-1.1-2.199s-0.2-2-0.2-2.9v-2.5
	c0-1.6-0.399-2.801-1.3-3.7s-2.1-1.399-3.7-1.399H232.484L232.484,38.054z M232.484,33.95h5.9c2,0,3.5-0.4,4.5-1.203
	c0.9-0.801,1.4-2.003,1.4-3.605c0-1.502-0.5-2.802-1.4-3.602c-0.9-0.9-2.3-1.3-4.2-1.3h-6.2V33.95z"/>
<path fill="#1E1E1E" d="M273.284,43.654h-12l-2.4,7.199h-5.2l11.3-30.613h4.801l11.1,30.613h-5.2L273.284,43.654z M262.784,39.353
	h9.1l-4.4-13.113h-0.1L262.784,39.353z"/>
<path fill="#1E1E1E" d="M302.484,37.753h-13.399v13.1h-5.101V20.14h20.7v4.1h-15.6v9.41h13.399V37.753z"/>
<path fill="#1E1E1E" d="M313.284,50.753h-5.101V20.14h5.101V50.753z"/>
<path fill="#1E1E1E" d="M336.084,43.654h-12l-2.4,7.199h-5.2l11.301-30.613h4.8l11.1,30.613h-5.2L336.084,43.654z M325.584,39.353
	h9.1l-4.399-13.113h-0.101L325.584,39.353z"/>
<polygon fill="#1E1E1E" points="0,0 0,70.8 56,70.8 56,63.4 7.4,63.4 7.4,7.4 41.3,7.4 41.3,44.1 48.7,44.1 48.7,0 "/>
</svg>
