<svg xmlns="http://www.w3.org/2000/svg" xmlns:xlink="http://www.w3.org/1999/xlink" xmlns:a="http://ns.adobe.com/AdobeSVGViewerExtensions/3.0/" version="1.1" x="0" y="0" width="345.1" height="70.8" viewBox="0 0 345.1 70.8" xml:space="preserve" enable-background="new 0 0 345.1 70.8" class="logo">
			  <style type="text/css">
			    
				.st0{fill:#1e1e1e;}

			  </style>
			  <path class="st0" d="M94.9 51.3h-12l-2.4 7.2h-5.2l11.3-30.6h4.8l11.1 30.6h-5.2L94.9 51.3zM84.4 47h9.1L89 33.9h-0.1L84.4 47z"></path>
			  <path class="st0" d="M111.4 45.7v12.7h-5.1V27.8h11.3c3.4 0 6.1 0.8 7.9 2.3 1.9 1.5 2.8 3.7 2.8 6.6 0 1.6-0.4 2.9-1.2 4.1 -0.8 1.1-2 2.1-3.6 2.7 1.7 0.5 3 1.4 3.7 2.7 0.8 1.2 1.1 2.8 1.1 4.6v2.5c0 0.9 0.1 1.8 0.3 2.6 0.2 0.9 0.6 1.5 1.1 2v0.5h-5.3c-0.6-0.5-0.9-1.2-1.1-2.2 -0.2-1-0.2-2-0.2-2.9v-2.5c0-1.6-0.4-2.8-1.3-3.7 -0.9-0.9-2.1-1.4-3.7-1.4H111.4zM111.4 41.6h5.9c2 0 3.5-0.4 4.5-1.2 0.9-0.8 1.4-2 1.4-3.6 0-1.5-0.5-2.8-1.4-3.6 -0.9-0.9-2.3-1.3-4.2-1.3h-6.2V41.6z"></path>
			  <path class="st0" d="M157.6 45.9c0 1.9-0.3 3.7-1 5.3 -0.6 1.6-1.6 3-2.7 4.2l5.1 4.9 -3.4 3.1 -5.6-5.4c-0.8 0.3-1.6 0.5-2.4 0.7 -0.8 0.1-1.7 0.2-2.6 0.2 -3.7 0-6.7-1.2-9-3.7 -2.3-2.5-3.4-5.6-3.4-9.3v-5.5c0-3.7 1.1-6.8 3.4-9.3 2.3-2.5 5.3-3.7 8.9-3.7 3.7 0 6.8 1.2 9.2 3.7 2.4 2.5 3.5 5.6 3.5 9.3V45.9zM152.5 40.3c0-2.6-0.7-4.6-2.1-6.3 -1.4-1.6-3.2-2.5-5.5-2.5 -2.2 0-4 0.8-5.3 2.5 -1.3 1.6-2 3.7-2 6.3v5.6c0 2.6 0.7 4.7 2 6.3 1.3 1.6 3.1 2.5 5.3 2.5 2.3 0 4.2-0.8 5.5-2.5 1.4-1.6 2-3.8 2-6.4V40.3z"></path>
			  <path class="st0" d="M185.9 27.8v20.5c0 3.4-1.1 6-3.3 7.8 -2.2 1.8-5.1 2.7-8.7 2.7 -3.5 0-6.3-0.9-8.5-2.7 -2.2-1.8-3.3-4.4-3.3-7.8V27.8h5.1v20.5c0 2.1 0.6 3.8 1.8 4.8 1.2 1.1 2.8 1.6 4.9 1.6 2.1 0 3.8-0.5 5-1.6 1.2-1.1 1.9-2.7 1.9-4.8V27.8H185.9z"></path>
			  <path class="st0" d="M195.9 58.4h-5.1V27.8h5.1V58.4z"></path>
			  <path class="st0" d="M224.4 54.3c-0.8 1.2-2.1 2.2-4 3.2 -1.9 0.9-4.2 1.4-7.2 1.4 -3.7 0-6.7-1.2-9.1-3.5 -2.4-2.3-3.6-5.4-3.6-9.1v-6.4c0-3.7 1.1-6.7 3.4-9.1 2.3-2.3 5.2-3.5 8.7-3.5 3.6 0 6.4 0.9 8.4 2.7 2 1.8 3 4.1 3.1 6.9l0 0.1h-4.8c-0.1-1.7-0.7-3-1.8-4.1s-2.7-1.5-4.7-1.5c-2.1 0-3.8 0.8-5.1 2.4 -1.3 1.6-1.9 3.6-1.9 6v6.4c0 2.5 0.7 4.5 2.1 6.1 1.4 1.6 3.2 2.4 5.5 2.4 1.6 0 2.9-0.2 3.9-0.6 1-0.4 1.7-0.8 2.2-1.3v-6.2h-6.1v-3.8h11.2V54.3z"></path>
			  <path class="st0" d="M233.9 45.7v12.7h-5.1V27.8h11.3c3.4 0 6.1 0.8 7.9 2.3 1.9 1.5 2.8 3.7 2.8 6.6 0 1.6-0.4 2.9-1.2 4.1 -0.8 1.1-2 2.1-3.6 2.7 1.7 0.5 3 1.4 3.7 2.7 0.8 1.2 1.1 2.8 1.1 4.6v2.5c0 0.9 0.1 1.8 0.3 2.6 0.2 0.9 0.6 1.5 1.1 2v0.5h-5.3c-0.6-0.5-0.9-1.2-1.1-2.2 -0.2-1-0.2-2-0.2-2.9v-2.5c0-1.6-0.4-2.8-1.3-3.7 -0.9-0.9-2.1-1.4-3.7-1.4H233.9zM233.9 41.6h5.9c2 0 3.5-0.4 4.5-1.2 0.9-0.8 1.4-2 1.4-3.6 0-1.5-0.5-2.8-1.4-3.6 -0.9-0.9-2.3-1.3-4.2-1.3h-6.2V41.6z"></path>
			  <path class="st0" d="M274.7 51.3h-12l-2.4 7.2h-5.2l11.3-30.6h4.8l11.1 30.6h-5.2L274.7 51.3zM264.2 47h9.1l-4.4-13.1h-0.1L264.2 47z"></path>
			  <path class="st0" d="M303.9 45.4h-13.4v13.1h-5.1V27.8h20.7v4.1h-15.6v9.4h13.4V45.4z"></path>
			  <path class="st0" d="M314.7 58.4h-5.1V27.8h5.1V58.4z"></path>
			  <path class="st0" d="M337.5 51.3h-12l-2.4 7.2h-5.2l11.3-30.6h4.8l11.1 30.6h-5.2L337.5 51.3zM327 47h9.1l-4.4-13.1h-0.1L327 47z"></path>
			  <polygon class="st0" points="0 0 0 70.8 56 70.8 56 63.4 7.4 63.4 7.4 7.4 41.3 7.4 41.3 44.1 48.7 44.1 48.7 0 "></polygon>
			</svg>